<?xml version="1.0" encoding="utf-8"?>
<svg viewBox="0 0 213 35" fill="none" xmlns="http://www.w3.org/2000/svg">
  <defs/>
  <path d="M60.1906 18.765C59.9658 24.8327 55.1716 29.5895 49.2162 29.5895c-6.2925.0-10.9369-5.0939-10.9369-11.2365.0-6.1801 5.0564-11.27402 11.2365-11.27402 2.7717.0 5.506 1.19856 7.8282 3.33352l-1.7979 2.2098C53.7857 11.0867 51.6508 10.0379 49.5158 10.0379c-4.532.0-8.2401 3.7081-8.2401 8.2776.0 4.6445 3.4833 8.2402 7.978 8.2402 4.0077.0 7.1539-2.9215 7.7906-6.7045H47.9427V17.2293H60.228L60.1906 18.765z" fill="#000"/>
  <path d="M70.6407 17.3046H68.9552c-1.8353.0-3.3335 1.4982-3.3335 3.3709v8.7271H62.6252V14.4205h2.4721V15.694C65.9213 14.87 67.1948 14.4205 68.6181 14.4205H71.8392L70.6407 17.3046z" fill="#000"/>
  <path d="M86.9338 29.4025H84.3868V27.5297C82.4391 29.4399 79.3304 30.3763 76.1841 28.9905c-2.3222-1.0113-4.0826-3.1463-4.532-5.6558C70.7531 18.503 74.4986 14.1957 79.2554 14.1957c2.02260000000001.0 3.783.824 5.1314 2.1349V14.4579h2.5844L86.9338 29.4025zM83.8624 22.9976C84.5741 19.9638 82.2519 17.1921 79.2554 17.1921 76.671 17.1921 74.5361 19.327 74.5361 21.874 74.5361 24.7955 77.083 27.0428 80.0795 26.5184 81.9522 26.2188 83.4504 24.7955 83.8624 22.9976z" fill="#000"/>
  <path d="M92.9641 13.5965v.824h4.7568v2.6219H92.9641V29.3651h-2.959V13.634C90.0051 10.3379 92.3648 8.39026 95.3238 8.39026H98.9195L97.7209 11.1994H95.3238C94.0128 11.2743 92.9641 12.3231 92.9641 13.5965z" fill="#000"/>
  <path d="M113.602 29.4025h-2.547V27.5297C109.107 29.4399 105.999 30.3763 102.852 28.9905c-2.322-1.0113-4.0823-3.1463-4.5317-5.6558C97.4213 18.503 101.167 14.1957 105.924 14.1957 107.946 14.1957 109.707 15.0197 111.055 16.3306V14.4579H113.639L113.602 29.4025zm-3.071-6.4049C111.242 19.9638 108.92 17.1921 105.924 17.1921c-2.622.0-4.682 2.1349-4.682 4.6819.0 2.9215 2.547 5.1688 5.54299999999999 4.6444C108.62 26.2188 110.119 24.7955 110.531 22.9976z" fill="#000"/>
  <path d="M129.595 20.5256v8.8769h-2.996V20.5256c0-1.8728-1.536-3.371-3.37100000000001-3.371-1.87299999999999.0-3.371 1.4982-3.371 3.371v8.8769H116.86V14.4204H119.332v1.3109C120.419 14.7575 121.842 14.1957 123.34 14.1957c3.48299999999999.0 6.255 2.8466 6.255 6.3299z" fill="#000"/>
  <path d="M147.199 29.4025H144.652V27.5297C142.705 29.4399 139.596 30.3763 136.449 28.9905 134.127 27.9792 132.367 25.8442 131.917 23.3347 131.019 18.503 134.764 14.1957 139.521 14.1957 141.543 14.1957 143.304 15.0197 144.652 16.3306V14.4579H147.237L147.199 29.4025zM144.128 22.9976C144.839 19.9638 142.517 17.1921 139.521 17.1921 136.899 17.1921 134.839 19.327 134.839 21.874c0 2.9215 2.547 5.1688 5.54300000000001 4.6444C142.18 26.2188 143.678 24.7955 144.128 22.9976z" fill="#000"/>
  <path d="M167.649 29.4024H156.375V7.11658H159.372V26.3685H167.649v3.0339z" fill="#000"/>
  <path d="M183.68 29.4027h-2.547V27.4924C179.823 28.8034 177.987 29.6274 175.965 29.6274 171.657 29.6274 168.211 26.1441 168.211 21.8367c0-4.2324 3.446-7.7532 7.75399999999999-7.7532C177.987 14.0835 179.785 14.9075 181.096 16.2184V14.3082h2.584V29.4027zm-2.959-7.566c0-2.5844-2.09700000000001-4.7193-4.756-4.7193-2.62200000000001.0-4.72 2.1349-4.72 4.7193.0 2.6593 2.09799999999998 4.7568 4.72 4.7568 2.65899999999999.0 4.756-2.0975 4.756-4.7568z" fill="#000"/>
  <path d="M201.696 21.8741c0 4.2699-3.483 7.7532-7.75299999999999 7.7532C191.92 29.6273 190.047 28.8033 188.736 27.4923v1.9103h-2.547V8.31531H189.186V15.8812C190.422 14.7576 192.107 14.0834 193.943 14.0834 198.213 14.1209 201.696 17.5667 201.696 21.8741zm-3.071.0c0-2.6219-2.13499999999999-4.7194-4.72-4.7194C191.321 17.1547 189.186 19.2522 189.186 21.8741 189.186 24.4585 191.321 26.556 193.905 26.556c2.58500000000001.0 4.72-2.0975 4.72-4.6819z" fill="#000"/>
  <path d="M211.996 15.4315l-1.31 2.2099C210.049 17.2668 208.963 16.6301 207.764 16.6301 206.64 16.6301 205.592 17.1919 205.592 18.1283 205.592 19.1396 206.753 19.5516 208.251 20.076 210.648 20.9 212.783 22.548 212.783 25.0201 212.783 27.5296 210.648 29.627 207.577 29.627 205.704 29.627 203.831 28.8779 202.595 28.0914l1.161-2.5095C204.618 26.1063 206.266 26.743 207.502 26.743 209 26.743 209.674 25.8441 209.674 24.9826 209.674 23.9713 208.738 23.372 206.678 22.5855 205.18 21.9862 202.745 20.9749 202.745 18.3156c0-2.5095 2.13499999999999-4.195 4.982-4.195C209.337 14.1206 210.723 14.6824 211.996 15.4315z" fill="#000"/>
  <path d="M31.9867 15.3566C31.9493 14.7573 31.8369 14.0831 31.6496 13.3715 31.4623 12.6224 31.1627 11.8358 30.7507 10.9744 30.3387 10.1503 29.7769 9.25142 29.0652 8.38995 28.803 8.05286 28.4659 7.71576 28.1663 7.41612 28.6532 5.46845 27.567 3.78297 27.567 3.78297c-1.8728-.11236-3.0713.59928-3.5208.89892C23.9713 4.64444 23.8964 4.60698 23.8215 4.60698 23.5218 4.45716 23.1847 4.3448 22.8476 4.26989 22.5106 4.19498 22.1735 4.08261 21.7989 3.97025 21.4618 3.89534 21.0873 3.82043 20.7127 3.74552 20.6378 3.74552 20.6003 3.70806 20.5254 3.70806 19.7014 1.0862 17.3417.0 17.3417.0 14.7199 1.64803 14.233 3.97025 14.233 3.97025S14.233 4.0077 14.1955 4.12007C14.0457 4.15752 13.8959 4.19498 13.746 4.23243 13.5588 4.30734 13.334 4.38225 13.1468 4.45716 12.9595 4.53207 12.7348 4.60698 12.5475 4.68189 12.1729 4.83171 11.7609 5.05645 11.3864 5.24372 11.0118 5.46845 10.6373 5.69318 10.3002 5.91791 10.2627 5.88046 10.2253 5.88046 10.2253 5.88046c-3.63319-1.38584-6.85434.29964-6.85434.29964-.22473 3.8579 1.49821 6.2925 1.83531 6.7419C5.13136 13.1468 5.05645 13.4089 4.98154 13.6337 4.71935 14.4951 4.53207 15.3941 4.38225 16.3304 4.3448 16.4428 4.3448 16.5926 4.3448 16.7425 1.01129 18.3905.0 21.7614.0 21.7614c2.80914 3.2212 6.03028 3.4085 6.03028 3.4085C6.44229 25.919 6.9292 26.5932 7.45358 27.2674c.22473.2621.44946.5243.71164.7865-1.01129 2.9215.14983 5.3186.14983 5.3186C11.4238 33.4849 13.4839 32.0242 13.8959 31.6871 14.1955 31.7994 14.5326 31.8743 14.8322 31.9867 15.7686 32.2489 16.7799 32.3613 17.7537 32.4362c.2622.0.487000000000002.0.749100000000002.0H18.6152 18.6901 18.8399 18.9898c1.4607 2.0974 4.0451 2.3971 4.0451 2.3971 1.8353-1.9477 1.9477-3.8579 1.9477-4.2699V30.5259C24.9826 30.4885 24.9826 30.451 24.9826 30.451 24.9826 30.4136 24.9826 30.3761 24.9826 30.3761 25.3571 30.1139 25.7317 29.8143 26.0688 29.5147 26.8179 28.8405 27.4546 28.0914 27.979 27.2674 28.0165 27.1924 28.0914 27.1175 28.1288 27.0426 30.1889 27.155 31.6496 25.7691 31.6496 25.7691c-.3371-2.1724-1.5731-3.2211-1.8353-3.4084H29.7769 29.7394S29.7019 22.3607 29.7019 22.3233C29.7019 22.2109 29.7394 22.0611 29.7394 21.9487 29.7394 21.724 29.7769 21.4993 29.7769 21.2371v-.1873V20.9749 20.9374C29.7769 20.8625 29.7769 20.9 29.7769 20.8625V20.7127v-.1873c0-.0748999999999995.0-.112300000000001.0-.1873C29.7769 20.2632 29.7769 20.2258 29.7394 20.1509L29.7019 19.9636 29.6645 19.7763C29.627 19.5516 29.5896 19.2894 29.5147 19.0647 29.2899 18.1283 28.9154 17.2668 28.4659 16.4428 27.979 15.6563 27.3797 14.9446 26.7055 14.3453s-1.4233-1.0862-2.2098-1.4233C23.7091 12.5849 22.8851 12.3227 22.0611 12.2478 21.6491 12.2104 21.2371 12.1729 20.8251 12.1729H20.6752 20.6378S20.5629 12.1729 20.6003 12.1729H20.5254 20.3756C20.3007 12.1729 20.2632 12.1729 20.1883 12.1729 19.9636 12.1729 19.7763 12.2104 19.5516 12.2478 18.7276 12.3977 17.941 12.6973 17.2668 13.1093 16.5926 13.5213 15.9934 14.0457 15.5064 14.6075 15.0195 15.1693 14.645 15.8435 14.3828 16.4803 14.1206 17.117 13.9708 17.8287 13.9333 18.5028c0 .149899999999999.0.3371.0.486999999999998C13.9333 19.0272 13.9333 19.0647 13.9333 19.1021V19.2519C13.9333 19.3269 13.9333 19.4018 13.9333 19.4767 13.9708 19.8138 14.0082 20.1509 14.1206 20.4505c.1873.636799999999997.4495 1.1986.824 1.6855C15.3192 22.6229 15.7312 22.9975 16.1806 23.3346 16.6301 23.6342 17.117 23.8589 17.6039 24.0088 18.0908 24.1586 18.5403 24.196 19.0272 24.196 19.1021 24.196 19.1396 24.196 19.2145 24.196 19.252 24.196 19.2894 24.196 19.2894 24.196H19.3643C19.4018 24.196 19.4392 24.196 19.5141 24.196H19.5516 19.589C19.6265 24.196 19.664 24.196 19.664 24.196 19.7389 24.196 19.7763 24.1586 19.8138 24.1586 19.8512 24.1586 19.9261 24.1211 19.9636 24.1211 20.076 24.0837 20.1509 24.0837 20.2632 24.0462 20.4505 23.9713 20.6378 23.8964 20.8251 23.8215 21.0123 23.7466 21.1622 23.6342 21.312 23.5218 21.3494 23.4844 21.3869 23.4469 21.4244 23.4469 21.5742 23.3346 21.6116 23.1098 21.4993 22.96 21.3869 22.8102 21.1996 22.7727 21.0498 22.8851 21.0123 22.8851 20.9749 22.9226 20.9374 22.96 20.8251 23.0349 20.6752 23.0724 20.5254 23.1473 20.3756 23.1847 20.2258 23.2222 20.076 23.2596 20.0011 23.2596 19.9261 23.2971 19.8512 23.2971 19.8138 23.2971 19.7763 23.2971 19.7389 23.2971 19.7014 23.2971 19.664 23.2971 19.6265 23.2971S19.5516 23.2971 19.5141 23.2971C19.4767 23.2971 19.4018 23.2971 19.3643 23.2971c-.0374000000000017.0.0.0.0.0H19.3269C19.2894 23.2971 19.2894 23.2971 19.252 23.2971 19.2145 23.2971 19.177 23.2971 19.1396 23.2971 18.8025 23.2597 18.4279 23.1473 18.0908 22.9975 17.7537 22.8476 17.4166 22.6229 17.117 22.3607 16.8174 22.0985 16.5552 21.7614 16.3679 21.4243 16.1806 21.0873 16.0308 20.6752 15.9559 20.2258 15.9184 20.0011 15.9184 19.7763 15.9184 19.589 15.9184 19.5141 15.9184 19.4767 15.9184 19.4018V19.3643 19.3269C15.9184 19.2894 15.9184 19.2519 15.9184 19.2519 15.9184 19.1396 15.9559 19.0272 15.9559 18.9149 16.1057 17.9785 16.5926 17.0795 17.3043 16.4054 17.4916 16.2181 17.6788 16.0683 17.8661 15.9559 18.0534 15.8061 18.2781 15.6937 18.5028 15.5813 18.7276 15.469 18.9523 15.3941 19.2145 15.3192 19.4767 15.2442 19.7014 15.2068 19.9636 15.2068c.112400000000001.0.2622.0.374600000000001.0C20.3756 15.2068 20.4131 15.2068 20.4131 15.2068H20.5254 20.6003s.0374999999999979.0.0.0H20.6378 20.7502C21.0123 15.2442 21.312 15.2817 21.5742 15.3192c.5243.112299999999999 1.0487.2996 1.5731.5992C24.1211 16.4803 24.9451 17.3043 25.4695 18.3156c.2622.5243.4495 1.0487.5244 1.6105C26.0313 20.076 26.0313 20.2258 26.0313 20.3381V20.4505 20.5629C26.0313 20.6003 26.0313 20.6378 26.0313 20.6752 26.0313 20.7127 26.0313 20.7502 26.0313 20.7876V20.8625 20.9749c0 .0748999999999995.0.187299999999997.0.2622C26.0313 21.3869 25.9939 21.5367 25.9939 21.6865 25.9564 21.8364 25.9564 21.9862 25.919 22.136 25.8815 22.2858 25.8441 22.4356 25.8066 22.5855 25.7317 22.8851 25.6193 23.1847 25.507 23.4844 25.2822 24.0462 24.9826 24.608 24.608 25.1324 23.8589 26.1437 22.8476 26.9677 21.724 27.4921 21.1622 27.7543 20.5254 27.9415 19.9261 28.0539 19.6265 28.0914 19.2894 28.1288 18.9898 28.1288H18.9149 18.8774 18.765 18.6152 18.5403s.0375000000000014.0.0.0H18.5028C18.3156 28.1288 18.1658 28.1288 18.0159 28.0914 17.3417 28.0539 16.6675 27.9415 16.0308 27.7543 15.3941 27.567 14.7573 27.3048 14.158 27.0052 12.9595 26.3684 11.9107 25.507 11.0867 24.4582 10.6747 23.9338 10.3002 23.372 10.0005 22.7727 9.70089 22.1735 9.47616 21.5742 9.28888 20.9374 9.1016 20.3007 8.98924 19.664 8.95178 18.9898V18.8774 18.8399 18.7276 18.6901 18.5778 18.5403 18.5028 18.4279 18.2781 18.2407 18.1657C8.95178 18.0908 8.95178 18.0159 8.95178 17.941 8.95178 17.6039 8.98924 17.3043 9.02669 16.9672 9.06415 16.6301 9.13906 16.293 9.17651 15.9559 9.21397 15.6188 9.32633 15.2817 9.40125 14.9821 9.58852 14.3453 9.81325 13.7086 10.0754 13.1468c.5619-1.1612 1.2735-2.2099 2.0975-3.0339C12.3977 9.88816 12.6224 9.70088 12.8471 9.51361 13.0719 9.32633 13.2966 9.13906 13.5588 8.98924s.4869-.29964.7491-.44947C14.4202 8.46486 14.5701 8.38995 14.6824 8.3525 14.7573 8.31504 14.8322 8.27759 14.8697 8.27759S15.0195 8.20268 15.057 8.20268C15.3192 8.09031 15.6188 7.97795 15.881 7.90304 15.9559 7.86558 16.0308 7.86558 16.1057 7.82813 16.1806 7.79067 16.2555 7.79067 16.3304 7.75322 16.4803 7.71576 16.6301 7.67831 16.7799 7.64085 16.8548 7.64085 16.9297 7.6034 17.0046 7.6034 17.0796 7.6034 17.1545 7.56594 17.2294 7.56594 17.3043 7.56594 17.3792 7.52849 17.4541 7.52849H17.5665 17.6788C17.7537 7.52849 17.8287 7.49103 17.9036 7.49103S18.0534 7.49103 18.1658 7.45358C18.2407 7.45358 18.353 7.41612 18.4279 7.41612 18.4654 7.41612 18.5403 7.41612 18.5778 7.41612H18.6901 18.7276 18.8025c.0749000000000031.0.149800000000003.0.2622.0H19.177s.0375000000000014.0.0.0H19.2145 19.252C19.3269 7.41612 19.4018 7.41612 19.4767 7.41612 19.7763 7.41612 20.0385 7.41612 20.3007 7.41612 20.8625 7.45358 21.4244 7.49103 21.9487 7.6034 22.9975 7.79067 24.0088 8.12777 24.9077 8.57723 25.8066 9.02669 26.6306 9.55106 27.3423 10.1503 27.3797 10.1878 27.4172 10.2253 27.4546 10.2627 27.4921 10.3002 27.5295 10.3376 27.567 10.3751 27.6419 10.45 27.7168 10.5249 27.8292 10.5998 27.9415 10.6747 27.979 10.7496 28.0539 10.8245 28.1288 10.8994 28.2037 10.9744 28.2786 11.0493 28.5783 11.3864 28.8405 11.686 29.1027 12.0231 29.5896 12.6598 30.0016 13.334 30.3387 13.9333 30.3761 13.9708 30.3761 14.0082 30.4136 14.0457 30.451 14.0831 30.451 14.1206 30.4885 14.158 30.526 14.233 30.5634 14.3079 30.6009 14.3828 30.6383 14.4577 30.6758 14.5326 30.7132 14.6075 30.7507 14.6824 30.7881 14.7573 30.7881 14.8322 30.9005 15.1319 31.0129 15.3941 31.0878 15.6563 31.2376 16.0683 31.35 16.4428 31.4249 16.7799 31.4623 16.8923 31.5747 17.0046 31.7245 16.9672 31.8743 16.9672 31.9867 16.8548 31.9867 16.705 32.0616 16.2555 32.0242 15.8435 31.9867 15.3566z" fill="#ff671d"/>
</svg>