<?xml version="1.0" encoding="utf-8"?>
<svg width="135" height="35" viewBox="0 0 135 35" fill="none" xmlns="http://www.w3.org/2000/svg">
  <defs/>
  <path d="M48.3891 20.2314C47.9145 20.0035 47.5727 19.7567 47.3449 19.472C47.1171 19.1872 47.0032 18.9404 47.0032 18.7695C47.0032 18.6746 47.0411 18.5986 47.0981 18.5417C47.174 18.4847 47.25 18.4657 47.3259 18.4657H47.9524C48.0094 18.4657 48.0663 18.4847 48.0853 18.5037C48.1233 18.5227 48.1613 18.5607 48.2182 18.6366C48.446 18.9214 48.6929 19.1302 48.9776 19.2821C49.2624 19.434 49.6421 19.5099 50.1167 19.5099C50.6483 19.5099 51.066 19.415 51.3888 19.2062C51.7115 19.0163 51.8634 18.7315 51.8634 18.3518C51.8634 18.105 51.7874 17.9152 51.6545 17.7633C51.5216 17.6114 51.2938 17.4785 50.9711 17.3646C50.6483 17.2507 50.1737 17.1178 49.5472 16.9849C48.6929 16.7951 48.0853 16.5293 47.7246 16.1685C47.3639 15.8078 47.193 15.3522 47.193 14.8016C47.193 14.4409 47.3069 14.0802 47.5158 13.7384C47.7246 13.3967 48.0474 13.1309 48.484 12.9031C48.9207 12.6753 49.4143 12.5803 50.0218 12.5803C50.6483 12.5803 51.1799 12.6753 51.6166 12.8841C52.0532 13.0929 52.376 13.3398 52.6038 13.6055C52.8316 13.8903 52.9455 14.1181 52.9455 14.308C52.9455 14.4029 52.9076 14.4789 52.8506 14.5358C52.7936 14.5928 52.7177 14.6307 52.6228 14.6307H52.0532C51.9203 14.6307 51.8254 14.5738 51.7495 14.4599C51.5786 14.27 51.4457 14.1181 51.3318 14.0232C51.2179 13.9283 51.047 13.8334 50.8382 13.7574C50.6293 13.6815 50.3446 13.6435 50.0218 13.6435C49.5472 13.6435 49.1675 13.7384 48.9207 13.9473C48.6549 14.1561 48.541 14.4219 48.541 14.7447C48.541 14.9535 48.5979 15.1244 48.7118 15.2762C48.8258 15.4281 49.0346 15.561 49.3383 15.6749C49.6421 15.8078 50.0978 15.9217 50.7053 16.0546C51.6356 16.2445 52.3 16.5293 52.6987 16.89C53.0974 17.2507 53.2873 17.7253 53.2873 18.2949C53.2873 18.7126 53.1734 19.1112 52.9265 19.453C52.6797 19.7947 52.319 20.0605 51.8444 20.2693C51.3698 20.4592 50.8002 20.5731 50.1357 20.5731C49.4333 20.5731 48.8637 20.4592 48.3891 20.2314Z" fill="black"/>
  <path d="M54.8061 23.1361C54.7491 23.0791 54.7112 22.9842 54.7112 22.8893V13.074C54.7112 12.96 54.7491 12.8841 54.8061 12.8272C54.863 12.7702 54.958 12.7322 55.0529 12.7322H55.6794C55.7933 12.7322 55.8692 12.7702 55.9262 12.8272C55.9832 12.8841 56.0211 12.979 56.0211 13.074V13.7195C56.5907 12.96 57.407 12.5803 58.4702 12.5803C59.5144 12.5803 60.2738 12.9031 60.8054 13.5676C61.318 14.2321 61.6028 15.0674 61.6217 16.0736C61.6407 16.1875 61.6407 16.3584 61.6407 16.5672C61.6407 16.7951 61.6407 16.9659 61.6217 17.0608C61.5838 18.0671 61.318 18.9024 60.8054 19.5669C60.2928 20.2314 59.5144 20.5541 58.4702 20.5541C57.407 20.5541 56.6097 20.1744 56.0781 19.434V22.8703C56.0781 22.9652 56.0401 23.0412 55.9832 23.1171C55.9262 23.1741 55.8313 23.212 55.7364 23.212H55.0719C54.958 23.231 54.882 23.1931 54.8061 23.1361ZM59.7232 18.7505C60.046 18.3139 60.2168 17.7253 60.2548 17.0039C60.2738 16.909 60.2738 16.7571 60.2738 16.5672C60.2738 14.6687 59.5713 13.7195 58.1664 13.7195C57.483 13.7195 56.9514 13.9473 56.6097 14.4029C56.2679 14.8586 56.0781 15.4091 56.0591 16.0167C56.0401 16.1306 56.0401 16.3204 56.0401 16.5862C56.0401 16.871 56.0401 17.0608 56.0591 17.1558C56.0781 17.7633 56.2679 18.2759 56.6287 18.7126C56.9894 19.1492 57.502 19.377 58.1664 19.377C58.8879 19.415 59.4005 19.1872 59.7232 18.7505Z" fill="black"/>
  <path d="M63.824 19.6238C63.2165 18.9973 62.8938 18.143 62.8368 17.0608L62.8178 16.5672L62.8368 16.0736C62.8938 15.0104 63.2355 14.1561 63.824 13.5296C64.4316 12.9031 65.2289 12.5803 66.2351 12.5803C67.3173 12.5803 68.1526 12.9221 68.7602 13.6245C69.3487 14.308 69.6525 15.2573 69.6525 16.4343V16.7001C69.6525 16.795 69.6145 16.871 69.5575 16.9469C69.5006 17.0039 69.4057 17.0419 69.3107 17.0419H64.1847V17.1748C64.2227 17.8202 64.4126 18.3708 64.7733 18.8075C65.134 19.2631 65.6276 19.4909 66.2162 19.4909C66.6718 19.4909 67.0515 19.396 67.3553 19.2252C67.64 19.0353 67.8679 18.8454 68.0198 18.6556C68.1147 18.5417 68.1716 18.4657 68.2286 18.4468C68.2855 18.4278 68.3615 18.4088 68.4754 18.4088H69.1209C69.2158 18.4088 69.2918 18.4278 69.3487 18.4847C69.4057 18.5417 69.4436 18.5986 69.4436 18.6746C69.4436 18.8834 69.3107 19.1492 69.0449 19.453C68.7792 19.7567 68.3994 20.0225 67.9058 20.2503C67.4122 20.4782 66.8616 20.5921 66.2351 20.5921C65.2289 20.5731 64.4316 20.2503 63.824 19.6238ZM68.3045 16.0356V15.9977C68.3045 15.3142 68.1147 14.7447 67.735 14.308C67.3553 13.8713 66.8616 13.6625 66.2351 13.6625C65.5896 13.6625 65.096 13.8713 64.7353 14.308C64.3746 14.7447 64.1847 15.2952 64.1847 15.9977V16.0356H68.3045Z" fill="black"/>
  <path d="M71.7598 19.6808C71.1713 19.0923 70.8485 18.2569 70.8296 17.1748L70.8106 16.5862L70.8296 15.9977C70.8675 14.9155 71.1713 14.0802 71.7598 13.4916C72.3484 12.9031 73.1647 12.5993 74.2279 12.5993C74.9303 12.5993 75.5379 12.7322 76.0315 12.979C76.5251 13.2259 76.8858 13.5486 77.1326 13.9093C77.3794 14.289 77.5123 14.6497 77.5313 15.0294C77.5503 15.1244 77.5123 15.2003 77.4364 15.2573C77.3604 15.3332 77.2845 15.3522 77.1896 15.3522H76.5251C76.4302 15.3522 76.3542 15.3332 76.2973 15.2762C76.2403 15.2383 76.2023 15.1434 76.1454 15.0294C75.9745 14.5548 75.7277 14.2131 75.405 14.0042C75.1012 13.7954 74.7025 13.7005 74.2279 13.7005C73.6014 13.7005 73.1078 13.8903 72.7471 14.27C72.3863 14.6497 72.1775 15.2383 72.1585 16.0357L72.1395 16.5483L72.1585 17.0609C72.1965 17.8582 72.3863 18.4278 72.7471 18.8265C73.1078 19.2062 73.6014 19.396 74.2279 19.396C74.7025 19.396 75.1012 19.3011 75.405 19.0923C75.7087 18.8834 75.9555 18.5417 76.1264 18.0671C76.1834 17.9532 76.2213 17.8582 76.2783 17.8203C76.3353 17.7823 76.3922 17.7443 76.5061 17.7443H77.1516C77.2465 17.7443 77.3225 17.7823 77.3984 17.8392C77.4744 17.9152 77.5123 17.9911 77.4933 18.0671C77.4744 18.4278 77.3415 18.8075 77.0947 19.1682C76.8478 19.5479 76.4871 19.8517 75.9935 20.1175C75.4999 20.3833 74.9114 20.4972 74.1899 20.4972C73.1837 20.5731 72.3484 20.2693 71.7598 19.6808Z" fill="black"/>
  <path d="M79.6577 17.8392V13.8713H78.4806C78.3856 13.8713 78.3097 13.8334 78.2528 13.7764C78.1958 13.7195 78.1578 13.6435 78.1578 13.5486V13.074C78.1578 12.979 78.1958 12.9031 78.2528 12.8272C78.3097 12.7702 78.3856 12.7322 78.4806 12.7322H79.6577V10.2642C79.6577 10.1692 79.6956 10.0933 79.7526 10.0173C79.8095 9.96039 79.8855 9.92242 79.9804 9.92242H80.6259C80.7208 9.92242 80.7968 9.96039 80.8727 10.0173C80.9297 10.0743 80.9676 10.1692 80.9676 10.2642V12.7322H82.8092C82.9041 12.7322 82.9801 12.7702 83.056 12.8272C83.1129 12.8841 83.1509 12.979 83.1509 13.074V13.5486C83.1509 13.6435 83.1129 13.7195 83.056 13.7764C82.999 13.8334 82.9041 13.8713 82.8092 13.8713H80.9676V17.7253C80.9676 18.2189 81.0436 18.5986 81.2144 18.8644C81.3853 19.1302 81.6511 19.2441 82.0498 19.2441H82.9611C83.056 19.2441 83.1319 19.2821 83.1889 19.3391C83.2459 19.396 83.2838 19.4909 83.2838 19.5859V20.0795C83.2838 20.1744 83.2459 20.2503 83.1889 20.3263C83.1319 20.3832 83.056 20.4212 82.9611 20.4212H81.9549C80.4171 20.4212 79.6577 19.5669 79.6577 17.8392Z" fill="black"/>
  <path d="M84.5368 20.3263C84.4799 20.2693 84.4419 20.1744 84.4419 20.0795V13.0929C84.4419 12.998 84.4799 12.9031 84.5368 12.8461C84.5938 12.7702 84.6887 12.7512 84.7836 12.7512H85.4101C85.5241 12.7512 85.6 12.7892 85.6759 12.8461C85.7329 12.9031 85.7709 12.998 85.7709 13.1119V13.7574C86.1696 13.0929 86.853 12.7512 87.8213 12.7512H88.3908C88.5047 12.7512 88.5807 12.7892 88.6376 12.8461C88.6946 12.9031 88.7326 12.998 88.7326 13.0929V13.6245C88.7326 13.7195 88.6946 13.7954 88.6376 13.8713C88.5807 13.9283 88.4858 13.9663 88.3908 13.9663H87.5365C86.9859 13.9663 86.5682 14.1181 86.2645 14.4409C85.9607 14.7636 85.7898 15.1813 85.7898 15.7319V20.0985C85.7898 20.1934 85.7519 20.2693 85.6949 20.3453C85.619 20.4022 85.543 20.4402 85.4481 20.4402H84.7836C84.6697 20.4212 84.5938 20.3833 84.5368 20.3263Z" fill="black"/>
  <path d="M90.1564 19.6618C89.5679 19.0543 89.2642 18.2379 89.2262 17.2127L89.2072 16.5862L89.2262 15.9597C89.2642 14.9535 89.5869 14.1371 90.1754 13.5106C90.764 12.9031 91.5993 12.5993 92.6625 12.5993C93.7257 12.5993 94.561 12.9031 95.1495 13.5106C95.7381 14.1182 96.0608 14.9345 96.0988 15.9597C96.1178 16.1686 96.1368 16.3964 96.1368 16.5862C96.1368 16.7951 96.1178 17.0039 96.0988 17.2127C96.0608 18.2189 95.7381 19.0353 95.1685 19.6618C94.58 20.2693 93.7447 20.5731 92.6625 20.5731C91.5803 20.5731 90.745 20.2693 90.1564 19.6618ZM94.1623 18.8644C94.523 18.4658 94.7319 17.8962 94.7698 17.1368C94.7888 17.0419 94.7888 16.852 94.7888 16.5672C94.7888 16.2825 94.7888 16.1116 94.7698 15.9977C94.7319 15.2573 94.542 14.6687 94.1623 14.27C93.8016 13.8713 93.289 13.6625 92.6625 13.6625C92.036 13.6625 91.5234 13.8713 91.1627 14.27C90.8019 14.6687 90.5931 15.2383 90.5551 15.9977L90.5361 16.5672L90.5551 17.1368C90.5931 17.8772 90.783 18.4658 91.1627 18.8644C91.5234 19.2631 92.036 19.472 92.6625 19.472C93.308 19.453 93.8016 19.2631 94.1623 18.8644Z" fill="black"/>
  <path d="M101.402 19.6808C100.833 19.0923 100.548 18.2569 100.51 17.1748L100.491 16.5862L100.51 15.9977C100.548 14.9155 100.833 14.0802 101.402 13.4916C101.972 12.9031 102.75 12.5993 103.775 12.5993C104.421 12.5993 104.971 12.7133 105.446 12.9411C105.902 13.1689 106.243 13.4727 106.471 13.8334C106.699 14.1941 106.813 14.5738 106.832 14.9535C106.851 15.0484 106.813 15.1244 106.737 15.1813C106.661 15.2383 106.585 15.2762 106.509 15.2762H106.3C106.206 15.2762 106.13 15.2573 106.092 15.2003C106.054 15.1623 105.997 15.0674 105.959 14.9535C105.769 14.4029 105.484 14.0232 105.123 13.7954C104.763 13.5676 104.326 13.4537 103.775 13.4537C103.073 13.4537 102.503 13.6625 102.086 14.0992C101.668 14.5358 101.44 15.1813 101.421 16.0736L101.402 16.5862L101.421 17.0988C101.459 17.9911 101.668 18.6366 102.086 19.0733C102.503 19.5099 103.073 19.7188 103.775 19.7188C104.326 19.7188 104.763 19.6049 105.123 19.377C105.484 19.1492 105.75 18.7505 105.959 18.2189C106.016 18.105 106.054 18.0101 106.092 17.9721C106.13 17.9342 106.206 17.8962 106.3 17.8962H106.509C106.604 17.8962 106.68 17.9342 106.737 17.9911C106.813 18.0481 106.832 18.124 106.832 18.2189C106.813 18.5987 106.68 18.9784 106.471 19.3391C106.243 19.6998 105.902 20.0036 105.446 20.2314C104.99 20.4592 104.44 20.5731 103.775 20.5731C102.75 20.5731 101.972 20.2693 101.402 19.6808Z" fill="black"/>
  <path d="M108.598 20.3263C108.541 20.2693 108.503 20.1934 108.503 20.0985V10.2452C108.503 10.1502 108.541 10.0743 108.598 10.0173C108.655 9.96039 108.731 9.92242 108.825 9.92242H109.072C109.167 9.92242 109.243 9.96039 109.3 10.0173C109.357 10.0743 109.395 10.1502 109.395 10.2452V20.0985C109.395 20.1934 109.357 20.2693 109.3 20.3263C109.243 20.3832 109.167 20.4212 109.072 20.4212H108.844C108.75 20.4212 108.655 20.3832 108.598 20.3263Z" fill="black"/>
  <path d="M112.072 19.6238C111.502 18.9973 111.199 18.181 111.18 17.1937L111.161 16.5672L111.18 15.9407C111.218 14.9535 111.502 14.1371 112.072 13.5106C112.641 12.8841 113.439 12.5803 114.464 12.5803C115.489 12.5803 116.287 12.8841 116.856 13.5106C117.426 14.1371 117.73 14.9535 117.748 15.9407C117.767 16.0356 117.767 16.2445 117.767 16.5672C117.767 16.89 117.767 17.0988 117.748 17.1937C117.711 18.181 117.426 18.9973 116.856 19.6238C116.287 20.2503 115.489 20.5541 114.464 20.5541C113.439 20.5731 112.641 20.2503 112.072 19.6238ZM116.154 19.0353C116.59 18.5797 116.818 17.9531 116.837 17.1178C116.856 17.0229 116.856 16.833 116.856 16.5672C116.856 16.3014 116.856 16.1116 116.837 16.0167C116.799 15.1813 116.571 14.5548 116.154 14.0992C115.717 13.6435 115.167 13.4347 114.464 13.4347C113.762 13.4347 113.192 13.6625 112.774 14.0992C112.338 14.5548 112.11 15.1813 112.091 16.0167L112.072 16.5672L112.091 17.1178C112.129 17.9531 112.357 18.5797 112.774 19.0353C113.211 19.4909 113.762 19.6998 114.464 19.6998C115.167 19.7188 115.717 19.4909 116.154 19.0353Z" fill="black"/>
  <path d="M120.16 19.6618C119.666 19.0543 119.4 18.2569 119.4 17.2697V13.055C119.4 12.96 119.438 12.8841 119.495 12.8271C119.552 12.7702 119.628 12.7322 119.723 12.7322H119.97C120.065 12.7322 120.141 12.7702 120.198 12.8271C120.255 12.8841 120.293 12.96 120.293 13.055V17.1747C120.293 18.8644 121.033 19.6998 122.495 19.6998C123.197 19.6998 123.767 19.472 124.184 19.0353C124.602 18.5796 124.811 17.9721 124.811 17.1747V13.055C124.811 12.96 124.849 12.8841 124.906 12.8271C124.963 12.7702 125.039 12.7322 125.134 12.7322H125.381C125.475 12.7322 125.551 12.7702 125.608 12.8271C125.665 12.8841 125.703 12.96 125.703 13.055V20.0985C125.703 20.1934 125.665 20.2693 125.608 20.3263C125.551 20.3832 125.475 20.4212 125.381 20.4212H125.172C125.077 20.4212 125.001 20.3832 124.944 20.3263C124.887 20.2693 124.849 20.1934 124.849 20.0985V19.396C124.545 19.7757 124.222 20.0795 123.843 20.2693C123.463 20.4592 122.969 20.5731 122.381 20.5731C121.413 20.5731 120.672 20.2693 120.16 19.6618Z" fill="black"/>
  <path d="M128.266 19.5289C127.754 18.8265 127.488 17.9911 127.469 16.9849L127.45 16.5672L127.469 16.1496C127.507 15.1623 127.773 14.308 128.266 13.6055C128.779 12.9031 129.557 12.5614 130.62 12.5614C131.703 12.5614 132.519 12.96 133.107 13.7384V10.2452C133.107 10.1502 133.145 10.0743 133.202 10.0173C133.259 9.96039 133.335 9.92242 133.43 9.92242H133.677C133.772 9.92242 133.848 9.96039 133.905 10.0173C133.962 10.0743 134 10.1502 134 10.2452V20.0985C134 20.1934 133.962 20.2693 133.905 20.3263C133.848 20.3832 133.772 20.4212 133.677 20.4212H133.43C133.335 20.4212 133.259 20.3832 133.202 20.3263C133.145 20.2693 133.107 20.1934 133.107 20.0985V19.396C132.538 20.1744 131.703 20.5731 130.62 20.5731C129.557 20.5731 128.779 20.2314 128.266 19.5289ZM132.462 18.9404C132.861 18.4278 133.07 17.8203 133.089 17.1178C133.107 17.0229 133.107 16.833 133.107 16.5482C133.107 16.2635 133.107 16.0736 133.089 15.9787C133.07 15.561 132.994 15.1623 132.804 14.7826C132.633 14.4029 132.367 14.0992 132.006 13.8524C131.646 13.6055 131.209 13.4916 130.696 13.4916C129.899 13.4916 129.31 13.7384 128.95 14.251C128.589 14.7636 128.38 15.4091 128.342 16.2065L128.323 16.6242C128.323 17.5355 128.494 18.2949 128.855 18.8834C129.216 19.472 129.823 19.7567 130.696 19.7567C131.494 19.7188 132.082 19.453 132.462 18.9404Z" fill="black"/>
  <path d="M20.31 34.3191L1 23.3389V17.2809L20.31 28.2611L39.62 17.4702V23.1496L20.31 34.3191Z" fill="#4A83D4"/>
  <path d="M20.31 24.4749L4.40764 15.3878L1 17.2809L1 8.19391L20.31 19.1741L23.339 17.281L7.62597 8.19391L12.3588 5.54352L20.31 1L36.2123 10.2764L39.62 8.19391V17.4702L20.31 6.30078L16.9023 8.19391L32.6154 17.281" fill="white"/>
  <path d="M20.31 24.4749L4.40764 15.3878L1 17.2809L1 8.19391L20.31 19.1741L23.339 17.281L7.62597 8.19391L12.3588 5.54352L20.31 1L36.2123 10.2764L39.62 8.19391V17.4702L20.31 6.30078L16.9023 8.19391L32.6154 17.281" fill="#4A83D4"/>
</svg>